<svg xmlns="http://www.w3.org/2000/svg" xmlns:xlink="http://www.w3.org/1999/xlink" viewBox="0 0 700 340" width="700" height="340" preserveAspectRatio="xMidYMid meet">
<rect x="332.2" y="81.1" fill="#DCEFFE" width="36.6" height="35.5"/>
<g>
	<path fill="#222222" d="M232.6,101.5c1.1,0.7,2.2,1,3.1,1c1.3,0,2.1-0.5,2.1-1.5c0-2-4.8-1.4-4.8-4.4c0-1.6,1.4-2.7,3.3-2.7
		c0.9,0,1.7,0.2,2.5,0.6v1.4c-0.8-0.5-1.6-0.7-2.5-0.7c-1.1,0-1.9,0.5-1.9,1.4c0,1.9,4.8,1.4,4.8,4.4c0,1.7-1.6,2.8-3.6,2.8
		c-1.1,0-2.3-0.3-3.1-0.8V101.5z"/>
	<path fill="#222222" d="M241,96.5V95l1.4-0.2v1.7h2.4l-0.2,1.1h-2.2v3.7c0,0.8,0.5,1.1,1.1,1.1c0.6,0,1-0.1,1.6-0.3v1.2
		c-0.5,0.3-1.2,0.4-1.8,0.4c-1.2,0-2.3-0.6-2.3-2.1v-3.9h-1v-1.1H241z"/>
	<path fill="#222222" d="M250.4,103.5l-0.1-0.7c-0.5,0.5-1.3,0.9-2.1,0.9c-1.1,0-2-0.7-2-1.9c0-1.4,1.3-2.4,4.2-2.5v-0.4
		c0-0.8-0.5-1.4-1.5-1.4c-0.8,0-1.6,0.2-2.3,0.7v-1.2c0.6-0.4,1.6-0.7,2.4-0.7c1.9,0,2.7,1.1,2.7,2.5v3.3c0,0.7,0,1,0.1,1.4H250.4z
		 M250.2,102v-1.8c-1.9,0.1-2.8,0.5-2.8,1.5c0,0.6,0.4,0.9,1.1,0.9S249.7,102.4,250.2,102z"/>
	<path fill="#222222" d="M254.9,96.4v0.8c0.5-0.4,1.4-0.8,2.4-0.8c1.6,0,2.4,0.9,2.4,2.4v4.8h-1.4v-4.4c0-0.9-0.4-1.5-1.4-1.5
		c-0.8,0-1.3,0.2-1.9,0.6v5.3h-1.4v-6.9L254.9,96.4z"/>
	<path fill="#222222" d="M266.2,102.8c-0.4,0.4-1.1,0.9-2.1,0.9c-1.8,0-3.1-1.3-3.1-3.5c0-2.3,1.6-3.8,3.6-3.8
		c0.5,0,1.1,0.1,1.5,0.4v-4l1.4-0.2v10.8l-1.4,0.2V102.8z M266.2,97.9c-0.4-0.3-0.9-0.4-1.4-0.4c-1.4,0-2.3,1.1-2.3,2.7
		c0,1.4,0.8,2.3,2,2.3c0.8,0,1.4-0.3,1.8-0.7V97.9z"/>
	<path fill="#222222" d="M273.4,103.5l-0.1-0.7c-0.5,0.5-1.3,0.9-2.1,0.9c-1.1,0-2-0.7-2-1.9c0-1.4,1.3-2.4,4.2-2.5v-0.4
		c0-0.8-0.5-1.4-1.5-1.4c-0.8,0-1.6,0.2-2.3,0.7v-1.2c0.6-0.4,1.6-0.7,2.4-0.7c1.9,0,2.7,1.1,2.7,2.5v3.3c0,0.7,0,1,0.1,1.4H273.4z
		 M273.3,102v-1.8c-1.9,0.1-2.8,0.5-2.8,1.5c0,0.6,0.4,0.9,1.1,0.9S272.7,102.4,273.3,102z"/>
	<path fill="#222222" d="M276.6,103.5v-6.9l1.4-0.2v1.2c0.6-0.8,1.5-1.4,2.8-1.2v1.4c-1.1-0.2-2.1,0.2-2.8,0.9v4.8H276.6z"/>
	<path fill="#222222" d="M286.5,102.8c-0.4,0.4-1.1,0.9-2.1,0.9c-1.8,0-3.1-1.3-3.1-3.5c0-2.3,1.6-3.8,3.6-3.8
		c0.5,0,1.1,0.1,1.5,0.4v-4l1.4-0.2v10.8l-1.4,0.2V102.8z M286.5,97.9c-0.4-0.3-0.9-0.4-1.4-0.4c-1.4,0-2.3,1.1-2.3,2.7
		c0,1.4,0.8,2.3,2,2.3c0.8,0,1.4-0.3,1.8-0.7V97.9z"/>
</g>
<g>
	<path fill="#F5F5F5" d="M366.8,82.6v32h-176v-32H366.8 M368.8,80.6h-180v36h180V80.6L368.8,80.6z"/>
</g>
<line fill="none" stroke="#F5F5F5" stroke-width="2.2" stroke-miterlimit="10" x1="332.2" y1="81.1" x2="332.2" y2="115.6"/>
<polyline fill="none" stroke="#4C6086" stroke-width="1.3061" stroke-miterlimit="10" points="346.3,97.1 349.9,100.8 353.5,97.1
	"/>
<g>
	<path fill="#F9D687" d="M350.8,257.6h-144c-9.9,0-18-8.1-18-18v0c0-9.9,8.1-18,18-18h144c9.9,0,18,8.1,18,18v0
		C368.8,249.5,360.7,257.6,350.8,257.6z"/>
	<path fill="#F9BF37" d="M368.8,239.6L368.8,239.6c0,9.9-8.1,18-18,18h-144c-9.9,0-18-8.1-18-18v0"/>
	<g>
		<path fill="#003087" d="M251.9,233.7c0.6,0,1.1,0,1.6,0.1c0.5,0.1,0.8,0.2,1.2,0.4c0.3,0.2,0.6,0.5,0.7,0.8s0.3,0.8,0.3,1.3
			c0,0.3,0,0.6-0.1,0.9c-0.1,0.3-0.2,0.6-0.4,0.8c-0.2,0.2-0.4,0.4-0.7,0.6c-0.3,0.2-0.6,0.3-0.9,0.3v0c0.5,0.2,1,0.4,1.3,0.9
			c0.3,0.4,0.4,0.9,0.4,1.5c0,0.6-0.1,1.2-0.4,1.6c-0.2,0.5-0.6,0.9-1,1.2c-0.4,0.3-0.9,0.5-1.4,0.7s-1.1,0.2-1.6,0.2h-6.1l2.4-11.4
			H251.9z M250.7,243.2c0.6,0,1-0.2,1.4-0.5c0.4-0.3,0.6-0.8,0.6-1.4c0-0.3-0.1-0.5-0.2-0.7c-0.1-0.2-0.3-0.3-0.5-0.4
			c-0.2-0.1-0.4-0.1-0.6-0.2c-0.2,0-0.5,0-0.7,0h-2.5l-0.7,3.1H250.7z M251.4,238.4c0.5,0,0.9-0.1,1.2-0.4s0.5-0.6,0.5-1.1
			c0-0.4-0.1-0.8-0.4-0.9c-0.2-0.2-0.6-0.2-1-0.2h-2.7l-0.6,2.7H251.4z"/>
		<path fill="#003087" d="M261.6,245.2l0.3-1.2h0c-0.7,0.9-1.7,1.4-2.9,1.4c-1.6,0-2.4-0.7-2.4-2.2c0-0.1,0-0.2,0-0.3
			c0-0.1,0-0.3,0.1-0.4s0.1-0.3,0.1-0.4s0.1-0.2,0.1-0.3l1-4.8h2.3l-1,4.8c0,0.1,0,0.1-0.1,0.2c0,0.1,0,0.2,0,0.3c0,0.1,0,0.2,0,0.3
			c0,0.1,0,0.2,0,0.2c0,0.2,0.1,0.4,0.3,0.6c0.2,0.2,0.5,0.2,0.7,0.2c0.3,0,0.6-0.1,0.9-0.2c0.3-0.1,0.5-0.3,0.7-0.5
			s0.3-0.5,0.5-0.7c0.1-0.3,0.2-0.6,0.3-0.8l0.9-4.4h2.3l-1.7,8.3H261.6z"/>
		<path fill="#003087" d="M268.8,247.2c-0.2,0.2-0.4,0.4-0.7,0.5c-0.2,0.1-0.5,0.2-0.8,0.3c-0.3,0-0.7,0.1-1.1,0.1
			c-0.2,0-0.4,0-0.6,0c-0.2,0-0.4,0-0.6,0l0.4-1.9c0.1,0,0.3,0,0.5,0c0.2,0,0.3,0,0.5,0c0.3,0,0.5,0,0.6-0.1
			c0.2-0.1,0.3-0.2,0.4-0.3s0.2-0.2,0.3-0.4s0.1-0.2,0.2-0.3l-1.5-8.2h2.3l0.7,5.9h0l2.9-5.9h2.4l-5.3,9.4
			C269.2,246.7,269,247,268.8,247.2z"/>
		<path fill="#003087" d="M283.7,233.7l3.1,8.1h0l1.6-8.1h2.3l-2.4,11.4h-2.5l-3.1-8h0l-1.6,8h-2.3l2.4-11.4H283.7z"/>
		<path fill="#003087" d="M291.1,239.8c0.2-0.6,0.5-1.2,0.9-1.6c0.4-0.5,0.9-0.8,1.5-1.1s1.2-0.4,2-0.4c0.6,0,1.1,0.1,1.6,0.2
			c0.5,0.1,0.9,0.4,1.2,0.6c0.3,0.3,0.6,0.7,0.8,1.1c0.2,0.4,0.3,1,0.3,1.6c0,0.7-0.1,1.4-0.3,2c-0.2,0.6-0.5,1.2-1,1.7
			s-0.9,0.8-1.5,1.1c-0.6,0.3-1.3,0.4-2,0.4c-1.2,0-2.1-0.3-2.8-0.9c-0.7-0.6-1-1.5-1-2.7C290.7,241.1,290.9,240.4,291.1,239.8z
			 M293.1,242.5c0.1,0.2,0.2,0.4,0.3,0.6s0.3,0.3,0.5,0.4c0.2,0.1,0.4,0.2,0.7,0.2c0.4,0,0.8-0.1,1.1-0.3c0.3-0.2,0.6-0.5,0.8-0.9
			c0.2-0.3,0.3-0.7,0.4-1.1c0.1-0.4,0.1-0.8,0.1-1.1c0-0.6-0.1-1-0.4-1.3c-0.3-0.3-0.7-0.5-1.3-0.5c-0.4,0-0.8,0.1-1.1,0.3
			c-0.3,0.2-0.6,0.5-0.7,0.9c-0.2,0.3-0.3,0.7-0.4,1.1c-0.1,0.4-0.1,0.8-0.1,1.1C293,242.1,293.1,242.3,293.1,242.5z"/>
		<path fill="#003087" d="M306.6,245.2l-0.3-5.8h0l-2.6,5.8h-2.4l-0.9-8.3h2.3l0.3,5.8h0l2.5-5.8h2.3l0.3,5.8h0l2.7-5.8h2.4
			l-4.3,8.3H306.6z"/>
	</g>
</g>
<g>
	<path d="M188.9,57.5v-1.3h9.1v1.3h-3.8v10.1h-1.5V57.5H188.9z"/>
	<path d="M200.9,68.8c-0.2,0.4-0.3,0.7-0.5,1s-0.3,0.5-0.5,0.7s-0.4,0.3-0.6,0.4s-0.5,0.1-0.8,0.1c-0.2,0-0.3,0-0.5,0
		c-0.2,0-0.3-0.1-0.5-0.1v-1.2c0.1,0.1,0.3,0.1,0.4,0.1s0.3,0.1,0.4,0.1c0.3,0,0.5-0.1,0.7-0.2s0.3-0.3,0.4-0.6l0.6-1.4l-3.3-8.2
		h1.5l2.4,6.8h0l2.3-6.8h1.4L200.9,68.8z"/>
	<path d="M207,59.4v1.1h0c0.2-0.5,0.6-0.8,1.1-1c0.5-0.2,1-0.3,1.6-0.3c0.6,0,1.2,0.1,1.7,0.4c0.5,0.2,0.9,0.6,1.2,1
		c0.3,0.4,0.6,0.9,0.7,1.4s0.2,1.1,0.2,1.7c0,0.6-0.1,1.1-0.2,1.7c-0.2,0.5-0.4,1-0.7,1.4c-0.3,0.4-0.7,0.7-1.2,0.9
		c-0.5,0.2-1,0.3-1.7,0.3c-0.2,0-0.4,0-0.7-0.1c-0.3,0-0.5-0.1-0.7-0.2s-0.5-0.2-0.7-0.4c-0.2-0.2-0.4-0.4-0.6-0.6h0v4.3h-1.4V59.4
		H207z M211.9,62.3c-0.1-0.4-0.3-0.7-0.5-1c-0.2-0.3-0.5-0.5-0.8-0.7c-0.3-0.2-0.7-0.3-1.1-0.3c-0.5,0-0.8,0.1-1.2,0.3
		c-0.3,0.2-0.6,0.4-0.8,0.7c-0.2,0.3-0.3,0.6-0.4,1c-0.1,0.4-0.1,0.8-0.1,1.1c0,0.4,0,0.8,0.1,1.2c0.1,0.4,0.2,0.7,0.5,1
		c0.2,0.3,0.5,0.5,0.8,0.7c0.3,0.2,0.7,0.3,1.2,0.3c0.5,0,0.9-0.1,1.2-0.3s0.6-0.4,0.8-0.7c0.2-0.3,0.3-0.6,0.4-1
		c0.1-0.4,0.1-0.8,0.1-1.2C212,63.1,212,62.7,211.9,62.3z"/>
	<path d="M220.9,67.1c-0.6,0.5-1.4,0.7-2.3,0.7c-0.7,0-1.2-0.1-1.7-0.3c-0.5-0.2-0.9-0.5-1.2-0.9c-0.3-0.4-0.6-0.8-0.7-1.4
		c-0.2-0.5-0.3-1.1-0.3-1.7c0-0.6,0.1-1.2,0.3-1.7c0.2-0.5,0.5-1,0.8-1.4c0.3-0.4,0.8-0.7,1.2-0.9c0.5-0.2,1-0.3,1.6-0.3
		c0.7,0,1.3,0.2,1.8,0.5c0.5,0.3,0.9,0.7,1.2,1.2s0.5,1,0.6,1.5c0.1,0.6,0.2,1.1,0.1,1.6H216c0,0.4,0,0.7,0.1,1
		c0.1,0.3,0.3,0.6,0.5,0.9c0.2,0.3,0.5,0.5,0.8,0.6c0.3,0.2,0.7,0.2,1.2,0.2c0.6,0,1-0.1,1.4-0.4c0.4-0.3,0.6-0.7,0.7-1.2h1.3
		C221.9,66,221.5,66.7,220.9,67.1z M220.6,61.8c-0.1-0.3-0.3-0.5-0.5-0.7c-0.2-0.2-0.5-0.4-0.7-0.5c-0.3-0.1-0.6-0.2-0.9-0.2
		c-0.4,0-0.7,0.1-1,0.2c-0.3,0.1-0.5,0.3-0.7,0.5c-0.2,0.2-0.4,0.5-0.5,0.7c-0.1,0.3-0.2,0.6-0.2,0.9h4.8
		C220.8,62.4,220.7,62.1,220.6,61.8z"/>
	<path d="M227.9,61.8c0.2-0.5,0.4-1,0.8-1.4c0.3-0.4,0.8-0.7,1.3-0.9c0.5-0.2,1.1-0.3,1.7-0.3c0.7,0,1.2,0.1,1.7,0.3
		c0.5,0.2,0.9,0.5,1.3,0.9c0.3,0.4,0.6,0.8,0.8,1.4c0.2,0.5,0.3,1.1,0.3,1.7c0,0.6-0.1,1.2-0.3,1.7c-0.2,0.5-0.4,1-0.8,1.4
		c-0.3,0.4-0.8,0.7-1.3,0.9c-0.5,0.2-1.1,0.3-1.7,0.3c-0.7,0-1.2-0.1-1.7-0.3c-0.5-0.2-0.9-0.5-1.3-0.9c-0.3-0.4-0.6-0.8-0.8-1.4
		c-0.2-0.5-0.3-1.1-0.3-1.7C227.6,62.9,227.7,62.4,227.9,61.8z M229.3,64.9c0.1,0.4,0.3,0.7,0.6,1c0.2,0.3,0.5,0.5,0.8,0.6
		s0.6,0.2,1,0.2c0.4,0,0.7-0.1,1-0.2s0.6-0.3,0.8-0.6c0.2-0.3,0.4-0.6,0.6-1c0.1-0.4,0.2-0.8,0.2-1.3c0-0.5-0.1-0.9-0.2-1.3
		c-0.1-0.4-0.3-0.7-0.6-1c-0.2-0.3-0.5-0.5-0.8-0.6s-0.6-0.2-1-0.2c-0.4,0-0.7,0.1-1,0.2s-0.6,0.3-0.8,0.6c-0.2,0.3-0.4,0.6-0.6,1
		c-0.1,0.4-0.2,0.8-0.2,1.3C229.1,64,229.1,64.5,229.3,64.9z"/>
	<path d="M236.2,60.6v-1.2h1.4v-1.2c0-0.7,0.2-1.2,0.6-1.5c0.4-0.3,1-0.5,1.7-0.5c0.1,0,0.3,0,0.4,0c0.2,0,0.3,0.1,0.4,0.1v1.2
		c-0.1,0-0.2-0.1-0.4-0.1c-0.1,0-0.3,0-0.4,0c-0.3,0-0.6,0.1-0.8,0.2c-0.2,0.1-0.3,0.4-0.3,0.7v1.2h1.6v1.2H239v7.1h-1.4v-7.1H236.2
		z"/>
	<path d="M251.8,67.7v-1.3h0c-0.3,0.5-0.7,0.9-1.1,1.1s-1,0.4-1.6,0.4c-0.5,0-1-0.1-1.4-0.2c-0.4-0.1-0.7-0.3-0.9-0.6
		c-0.2-0.3-0.4-0.6-0.5-1s-0.1-0.8-0.1-1.2v-5.4h1.4V65c0,0.5,0.1,0.9,0.4,1.2s0.7,0.4,1.2,0.4c0.4,0,0.8-0.1,1.1-0.2
		c0.3-0.1,0.6-0.3,0.8-0.5c0.2-0.2,0.4-0.5,0.5-0.8c0.1-0.3,0.2-0.7,0.2-1v-4.7h1.4v8.3H251.8z"/>
	<path d="M256.3,59.4v1.2h0c0.6-0.9,1.5-1.4,2.7-1.4c0.5,0,1,0.1,1.4,0.3c0.4,0.2,0.7,0.6,0.9,1.1c0.3-0.4,0.6-0.8,1.1-1
		c0.5-0.2,1-0.4,1.5-0.4c0.4,0,0.8,0,1.1,0.1c0.3,0.1,0.6,0.2,0.9,0.4c0.2,0.2,0.4,0.4,0.6,0.7c0.1,0.3,0.2,0.7,0.2,1.1v6.1h-1.4
		v-5.4c0-0.3,0-0.5-0.1-0.7c0-0.2-0.1-0.4-0.2-0.6c-0.1-0.2-0.3-0.3-0.5-0.4s-0.5-0.1-0.8-0.1c-0.7,0-1.2,0.2-1.6,0.6
		s-0.6,0.9-0.6,1.5v5.2h-1.4v-5.4c0-0.3,0-0.5-0.1-0.7c0-0.2-0.1-0.4-0.2-0.6c-0.1-0.2-0.3-0.3-0.5-0.4c-0.2-0.1-0.5-0.1-0.8-0.1
		c-0.4,0-0.7,0.1-1,0.2c-0.3,0.2-0.5,0.4-0.7,0.6c-0.2,0.2-0.3,0.5-0.4,0.7s-0.1,0.4-0.1,0.6v5.2h-1.4v-8.3H256.3z"/>
	<path d="M270,56.2v4.3h0c0.2-0.5,0.6-0.8,1.1-1c0.5-0.2,1-0.3,1.6-0.3c0.6,0,1.2,0.1,1.7,0.4c0.5,0.2,0.9,0.6,1.2,1
		c0.3,0.4,0.6,0.9,0.7,1.4s0.2,1.1,0.2,1.7c0,0.6-0.1,1.1-0.2,1.7c-0.2,0.5-0.4,1-0.7,1.4c-0.3,0.4-0.7,0.7-1.2,0.9
		c-0.5,0.2-1,0.3-1.7,0.3c-0.2,0-0.4,0-0.7-0.1c-0.3,0-0.5-0.1-0.7-0.2s-0.5-0.2-0.7-0.4c-0.2-0.2-0.4-0.4-0.6-0.6h0v1.1h-1.4V56.2
		H270z M274.9,62.3c-0.1-0.4-0.3-0.7-0.5-1c-0.2-0.3-0.5-0.5-0.8-0.7c-0.3-0.2-0.7-0.3-1.1-0.3c-0.5,0-0.8,0.1-1.2,0.3
		c-0.3,0.2-0.6,0.4-0.8,0.7c-0.2,0.3-0.3,0.6-0.4,1c-0.1,0.4-0.1,0.8-0.1,1.1c0,0.4,0,0.8,0.1,1.2c0.1,0.4,0.2,0.7,0.5,1
		c0.2,0.3,0.5,0.5,0.8,0.7c0.3,0.2,0.7,0.3,1.2,0.3c0.5,0,0.9-0.1,1.2-0.3s0.6-0.4,0.8-0.7c0.2-0.3,0.3-0.6,0.4-1
		c0.1-0.4,0.1-0.8,0.1-1.2C275.1,63.1,275,62.7,274.9,62.3z"/>
	<path d="M279.3,59.4v1.7h0c0.3-0.7,0.7-1.2,1.2-1.5c0.5-0.3,1.1-0.5,1.8-0.4v1.4c-0.5,0-1,0.1-1.4,0.2c-0.4,0.1-0.7,0.4-0.9,0.7
		c-0.2,0.3-0.4,0.6-0.5,1s-0.2,0.9-0.2,1.4v3.7h-1.4v-8.3H279.3z"/>
	<path d="M289.2,67.1c-0.6,0.5-1.4,0.7-2.3,0.7c-0.7,0-1.2-0.1-1.7-0.3c-0.5-0.2-0.9-0.5-1.2-0.9c-0.3-0.4-0.6-0.8-0.7-1.4
		c-0.2-0.5-0.3-1.1-0.3-1.7c0-0.6,0.1-1.2,0.3-1.7c0.2-0.5,0.5-1,0.8-1.4c0.3-0.4,0.8-0.7,1.2-0.9c0.5-0.2,1-0.3,1.6-0.3
		c0.7,0,1.3,0.2,1.8,0.5c0.5,0.3,0.9,0.7,1.2,1.2s0.5,1,0.6,1.5c0.1,0.6,0.2,1.1,0.1,1.6h-6.2c0,0.4,0,0.7,0.1,1
		c0.1,0.3,0.3,0.6,0.5,0.9c0.2,0.3,0.5,0.5,0.8,0.6c0.3,0.2,0.7,0.2,1.2,0.2c0.6,0,1-0.1,1.4-0.4c0.4-0.3,0.6-0.7,0.7-1.2h1.3
		C290.2,66,289.8,66.7,289.2,67.1z M288.9,61.8c-0.1-0.3-0.3-0.5-0.5-0.7c-0.2-0.2-0.5-0.4-0.7-0.5c-0.3-0.1-0.6-0.2-0.9-0.2
		c-0.4,0-0.7,0.1-1,0.2c-0.3,0.1-0.5,0.3-0.7,0.5c-0.2,0.2-0.4,0.5-0.5,0.7c-0.1,0.3-0.2,0.6-0.2,0.9h4.8
		C289.1,62.4,289,62.1,288.9,61.8z"/>
	<path d="M293.4,56.2v11.4h-1.4V56.2H293.4z"/>
	<path d="M296.8,56.2v11.4h-1.4V56.2H296.8z"/>
	<path d="M306.2,67.6c-0.2,0.1-0.6,0.2-1,0.2c-0.4,0-0.6-0.1-0.8-0.3s-0.3-0.5-0.3-1c-0.4,0.4-0.8,0.8-1.3,1s-1,0.3-1.6,0.3
		c-0.4,0-0.7,0-1.1-0.1c-0.3-0.1-0.6-0.2-0.9-0.4s-0.4-0.4-0.6-0.7c-0.1-0.3-0.2-0.6-0.2-1.1c0-0.5,0.1-0.9,0.2-1.2
		c0.2-0.3,0.4-0.5,0.6-0.7c0.3-0.2,0.6-0.3,0.9-0.4s0.7-0.2,1-0.2c0.4-0.1,0.7-0.1,1.1-0.2c0.3,0,0.6-0.1,0.9-0.2
		c0.3-0.1,0.5-0.2,0.6-0.3c0.1-0.1,0.2-0.3,0.2-0.6c0-0.3-0.1-0.5-0.2-0.7c-0.1-0.2-0.3-0.3-0.4-0.4c-0.2-0.1-0.4-0.2-0.6-0.2
		c-0.2,0-0.4,0-0.6,0c-0.6,0-1.1,0.1-1.4,0.3s-0.6,0.6-0.6,1.2h-1.4c0-0.5,0.1-0.9,0.3-1.3c0.2-0.4,0.4-0.6,0.8-0.9
		c0.3-0.2,0.7-0.4,1.1-0.5c0.4-0.1,0.9-0.1,1.3-0.1c0.4,0,0.7,0,1.1,0.1c0.4,0.1,0.7,0.2,1,0.3c0.3,0.2,0.5,0.4,0.7,0.7
		c0.2,0.3,0.3,0.7,0.3,1.2v4.2c0,0.3,0,0.6,0.1,0.7c0,0.1,0.2,0.2,0.4,0.2c0.1,0,0.3,0,0.4-0.1V67.6z M304,63.4
		c-0.2,0.1-0.4,0.2-0.7,0.3s-0.6,0.1-0.9,0.1c-0.3,0-0.6,0.1-0.9,0.1c-0.3,0-0.6,0.1-0.8,0.2c-0.2,0.1-0.4,0.3-0.6,0.5
		c-0.2,0.2-0.2,0.5-0.2,0.8c0,0.2,0,0.4,0.1,0.6c0.1,0.2,0.2,0.3,0.4,0.4c0.1,0.1,0.3,0.2,0.5,0.2c0.2,0,0.4,0.1,0.6,0.1
		c0.4,0,0.8-0.1,1.2-0.2c0.3-0.1,0.6-0.3,0.8-0.5c0.2-0.2,0.4-0.4,0.4-0.6s0.1-0.4,0.1-0.6V63.4z"/>
</g>
<rect x="332.2" y="164.7" fill="#DCEFFE" width="36.6" height="35.5"/>
<g>
	<path fill="#222222" d="M208.5,185c1.1,0.7,2.2,1,3.1,1c1.3,0,2.1-0.5,2.1-1.5c0-2-4.8-1.4-4.8-4.4c0-1.6,1.4-2.7,3.3-2.7
		c0.9,0,1.7,0.2,2.5,0.6v1.4c-0.8-0.5-1.6-0.7-2.5-0.7c-1.1,0-1.9,0.5-1.9,1.4c0,1.9,4.8,1.4,4.8,4.4c0,1.7-1.6,2.8-3.6,2.8
		c-1.1,0-2.3-0.3-3.1-0.8V185z"/>
	<path fill="#222222" d="M216.8,180.1v-1.5l1.4-0.2v1.7h2.4l-0.2,1.1h-2.2v3.7c0,0.8,0.5,1.1,1.1,1.1c0.6,0,1-0.1,1.6-0.3v1.2
		c-0.5,0.3-1.2,0.4-1.8,0.4c-1.2,0-2.3-0.6-2.3-2.1v-3.9h-1v-1.1H216.8z"/>
	<path fill="#222222" d="M222.2,187.1v-6.9l1.4-0.2v1.2c0.6-0.8,1.5-1.4,2.8-1.2v1.4c-1.1-0.2-2.1,0.2-2.8,0.9v4.8H222.2z"/>
	<path fill="#222222" d="M228.2,176.6c0.5,0,0.9,0.4,0.9,0.9s-0.4,0.9-0.9,0.9s-0.9-0.4-0.9-0.9S227.7,176.6,228.2,176.6z
		 M227.5,180.2l1.4-0.2v7.1h-1.4V180.2z"/>
	<path fill="#222222" d="M230.8,190.2v-10l1.4-0.2v0.8c0.4-0.4,1.2-0.8,2.1-0.8c1.8,0,3,1.3,3,3.4c0,2.3-1.6,3.9-3.6,3.9
		c-0.5,0-1.2-0.1-1.5-0.3v3.3H230.8z M232.3,185.8c0.4,0.3,1,0.4,1.4,0.4c1.4,0,2.3-1.1,2.3-2.7c0-1.4-0.8-2.3-1.9-2.3
		c-0.7,0-1.4,0.3-1.8,0.6V185.8z"/>
	<path fill="#222222" d="M242.2,187.3c-2.2,0-3.8-1.6-3.8-3.7c0-2.1,1.4-3.6,3.3-3.6c2.1,0,2.9,1.5,2.9,3.3c0,0.2,0,0.3,0,0.5h-4.9
		c0.1,1.4,1.2,2.3,2.6,2.3c0.7,0,1.2-0.1,2-0.5v1.2C243.7,187.1,243,187.3,242.2,187.3z M239.8,182.9h3.5v-0.1
		c0-0.9-0.5-1.8-1.6-1.8C240.7,181.1,240,181.7,239.8,182.9z"/>
	<path fill="#222222" d="M250.8,186.4c-0.4,0.4-1.1,0.9-2.1,0.9c-1.8,0-3.1-1.3-3.1-3.5c0-2.3,1.6-3.8,3.6-3.8
		c0.5,0,1.1,0.1,1.5,0.4v-4l1.4-0.2V187l-1.4,0.2V186.4z M250.8,181.5c-0.4-0.3-0.9-0.4-1.4-0.4c-1.4,0-2.3,1.1-2.3,2.7
		c0,1.4,0.8,2.3,2,2.3c0.8,0,1.4-0.3,1.8-0.7V181.5z"/>
	<path fill="#222222" d="M257.8,182.7h3.7v1.2h-3.7V182.7z"/>
	<path fill="#222222" d="M266.3,185.3c0.7,0.5,1.6,0.7,2.5,0.7c1.5,0,2.5-0.8,2.5-2c0-1.2-0.9-1.8-3.1-1.8v-0.5l2.5-3h-4v-1.3h5.7
		v1.1l-2.4,2.7c1.5,0.2,2.9,1,2.9,2.6c0,2-1.9,3.2-3.9,3.2c-1.1,0-1.9-0.3-2.6-0.7V185.3z"/>
	<path fill="#222222" d="M281.5,182.3c0,2.9-1.6,4.9-3.8,4.9c-2.3,0-3.8-2-3.8-4.9s1.6-4.9,3.8-4.9
		C279.9,177.4,281.5,179.4,281.5,182.3z M280,182.3c0-2.1-0.8-3.7-2.4-3.7s-2.4,1.6-2.4,3.7s0.9,3.7,2.4,3.7S280,184.4,280,182.3z"
		/>
	<path fill="#222222" d="M286.4,183.1v-5.5h1.5v5.4c0,2,1,3,2.6,3s2.6-1,2.6-3v-5.4h1.5v5.5c0,2.7-1.7,4.2-4.1,4.2
		S286.4,185.8,286.4,183.1z"/>
	<path fill="#222222" d="M295.8,185c1.1,0.7,2.2,1,3.1,1c1.3,0,2.1-0.5,2.1-1.5c0-2-4.8-1.4-4.8-4.4c0-1.6,1.4-2.7,3.3-2.7
		c0.9,0,1.7,0.2,2.5,0.6v1.4c-0.8-0.5-1.6-0.7-2.5-0.7c-1.1,0-1.9,0.5-1.9,1.4c0,1.9,4.8,1.4,4.8,4.4c0,1.7-1.6,2.8-3.6,2.8
		c-1.1,0-2.3-0.3-3.1-0.8V185z"/>
	<path fill="#222222" d="M304.3,177.5h3.2c2.8,0,5.1,1.8,5.1,4.8s-2.3,4.8-5.1,4.8h-3.2V177.5z M307.5,185.9c2.1,0,3.7-1.3,3.7-3.6
		s-1.6-3.5-3.7-3.5h-1.8v7.1H307.5z"/>
</g>
<g>
	<path fill="#F5F5F5" d="M366.8,166.2v32h-176v-32H366.8 M368.8,164.2h-180v36h180V164.2L368.8,164.2z"/>
</g>
<line fill="none" stroke="#F5F5F5" stroke-width="2.2" stroke-miterlimit="10" x1="332.2" y1="164.7" x2="332.2" y2="199.2"/>
<polyline fill="none" stroke="#4C6086" stroke-width="1.3061" stroke-miterlimit="10" points="346.3,180.7 349.9,184.4 353.5,180.7
	"/>
<g>
	<g>
		<path fill="#00CF92" d="M469.6,168.1v3.7h-1.5v-9.6h3.5c2,0,3.4,1.1,3.4,2.9s-1.4,2.9-3.4,2.9H469.6z M471.5,163.4h-1.9v3.4h1.9
			c1.2,0,2-0.6,2-1.7S472.7,163.4,471.5,163.4z"/>
		<path fill="#00CF92" d="M476.3,171.8v-6.9l1.4-0.2v1.2c0.6-0.8,1.5-1.4,2.8-1.2v1.4c-1.1-0.2-2.1,0.2-2.8,0.9v4.8H476.3z"/>
		<path fill="#00CF92" d="M484.5,164.6c1.9,0,3.4,1.5,3.4,3.7c0,2.2-1.6,3.7-3.4,3.7c-1.8,0-3.4-1.5-3.4-3.7
			C481.1,166.1,482.7,164.6,484.5,164.6z M484.5,165.8c-1.2,0-2,1-2,2.4c0,1.4,0.8,2.4,2,2.4s2-1,2-2.4
			C486.5,166.8,485.7,165.8,484.5,165.8z"/>
		<path fill="#00CF92" d="M494.1,171.1c-0.4,0.4-1.1,0.9-2.1,0.9c-1.8,0-3.1-1.3-3.1-3.5c0-2.3,1.6-3.8,3.6-3.8
			c0.5,0,1.1,0.1,1.5,0.4v-4l1.4-0.2v10.8l-1.4,0.2V171.1z M494.1,166.1c-0.4-0.3-0.9-0.4-1.4-0.4c-1.4,0-2.3,1.1-2.3,2.7
			c0,1.4,0.8,2.3,2,2.3c0.8,0,1.4-0.3,1.8-0.7V166.1z"/>
		<path fill="#00CF92" d="M503.4,171.6l-1.4,0.2v-0.8c-0.4,0.4-1.3,0.8-2.3,0.8c-1.5,0-2.3-1-2.3-2.4v-4.8h1.4v4.4
			c0,0.9,0.3,1.5,1.4,1.5c0.7,0,1.3-0.3,1.8-0.6v-5.4h1.4V171.6z"/>
		<path fill="#00CF92" d="M508.5,164.6c0.5,0,1,0.1,1.5,0.3v1.2c-0.5-0.2-0.9-0.3-1.4-0.3c-1.3,0-2.4,0.9-2.4,2.4
			c0,1.5,1.1,2.4,2.4,2.4c0.5,0,1-0.1,1.5-0.3v1.3c-0.4,0.2-1.1,0.3-1.5,0.3c-2.1,0-3.7-1.5-3.7-3.6
			C504.8,166.1,506.4,164.6,508.5,164.6z"/>
		<path fill="#00CF92" d="M512,164.7v-1.5l1.4-0.2v1.7h2.4l-0.2,1.1h-2.2v3.7c0,0.8,0.5,1.1,1.1,1.1c0.6,0,1-0.1,1.6-0.3v1.2
			c-0.5,0.3-1.2,0.4-1.8,0.4c-1.2,0-2.3-0.6-2.3-2.1v-3.9h-1v-1.1H512z"/>
		<path fill="#00CF92" d="M523.9,164.6c1.9,0,3.4,1.5,3.4,3.7c0,2.2-1.6,3.7-3.4,3.7c-1.8,0-3.4-1.5-3.4-3.7
			C520.5,166.1,522,164.6,523.9,164.6z M523.9,165.8c-1.2,0-2,1-2,2.4c0,1.4,0.8,2.4,2,2.4s2-1,2-2.4
			C525.9,166.8,525.1,165.8,523.9,165.8z"/>
		<path fill="#00CF92" d="M528.8,174.9v-10l1.4-0.2v0.8c0.4-0.4,1.2-0.8,2.1-0.8c1.8,0,3,1.3,3,3.4c0,2.3-1.6,3.9-3.6,3.9
			c-0.5,0-1.2-0.1-1.5-0.3v3.3H528.8z M530.2,170.4c0.4,0.3,1,0.4,1.4,0.4c1.4,0,2.3-1.1,2.3-2.7c0-1.4-0.8-2.3-1.9-2.3
			c-0.7,0-1.4,0.3-1.8,0.6V170.4z"/>
		<path fill="#00CF92" d="M537,164.7v-1.5l1.4-0.2v1.7h2.4l-0.2,1.1h-2.2v3.7c0,0.8,0.5,1.1,1.1,1.1c0.6,0,1-0.1,1.6-0.3v1.2
			c-0.5,0.3-1.2,0.4-1.8,0.4c-1.2,0-2.3-0.6-2.3-2.1v-3.9h-1v-1.1H537z"/>
		<path fill="#00CF92" d="M543.1,161.3c0.5,0,0.9,0.4,0.9,0.9s-0.4,0.9-0.9,0.9s-0.9-0.4-0.9-0.9S542.5,161.3,543.1,161.3z
			 M542.3,164.9l1.4-0.2v7.1h-1.4V164.9z"/>
		<path fill="#00CF92" d="M548.6,164.6c1.9,0,3.4,1.5,3.4,3.7c0,2.2-1.6,3.7-3.4,3.7c-1.8,0-3.4-1.5-3.4-3.7
			C545.2,166.1,546.7,164.6,548.6,164.6z M548.6,165.8c-1.2,0-2,1-2,2.4c0,1.4,0.8,2.4,2,2.4s2-1,2-2.4
			C550.6,166.8,549.8,165.8,548.6,165.8z"/>
		<path fill="#00CF92" d="M554.9,164.7v0.8c0.5-0.4,1.4-0.8,2.4-0.8c1.6,0,2.4,0.9,2.4,2.4v4.8h-1.4v-4.4c0-0.9-0.4-1.5-1.4-1.5
			c-0.8,0-1.3,0.2-1.9,0.6v5.3h-1.4v-6.9L554.9,164.7z"/>
		<path fill="#00CF92" d="M561.1,170.1c0.8,0.5,1.6,0.7,2.3,0.7c0.8,0,1.4-0.4,1.4-0.9c0-1.3-3.4-0.9-3.4-3.2c0-1.2,1.1-2.1,2.5-2.1
			c0.7,0,1.3,0.2,1.9,0.4v1.2c-0.6-0.4-1.2-0.5-1.8-0.5c-0.8,0-1.2,0.4-1.2,0.9c0,1.3,3.4,0.9,3.4,3.1c0,1.4-1.3,2.1-2.7,2.1
			c-0.9,0-1.8-0.2-2.3-0.5V170.1z"/>
		<path fill="#00CF92" d="M576,164.7l1.6,5.2l1.6-5.2h1.3l-2.4,7.1h-1.1l-1.6-5.1l-1.6,5.1h-1.1l-2.4-7.1h1.4l1.6,5.2l1.6-5.2H576z"
			/>
		<path fill="#00CF92" d="M582.3,161.3c0.5,0,0.9,0.4,0.9,0.9s-0.4,0.9-0.9,0.9s-0.9-0.4-0.9-0.9S581.8,161.3,582.3,161.3z
			 M581.6,164.9l1.4-0.2v7.1h-1.4V164.9z"/>
		<path fill="#00CF92" d="M585.2,164.7v-1.5l1.4-0.2v1.7h2.4l-0.2,1.1h-2.2v3.7c0,0.8,0.5,1.1,1.1,1.1c0.6,0,1-0.1,1.6-0.3v1.2
			c-0.5,0.3-1.2,0.4-1.8,0.4c-1.2,0-2.3-0.6-2.3-2.1v-3.9h-1v-1.1H585.2z"/>
		<path fill="#00CF92" d="M592,160.8v4.6c0.5-0.4,1.4-0.8,2.4-0.8c1.6,0,2.4,0.9,2.4,2.4v4.8h-1.4v-4.4c0-0.9-0.4-1.5-1.4-1.5
			c-0.8,0-1.3,0.2-1.9,0.6v5.3h-1.4V161L592,160.8z"/>
		<path fill="#00CF92" d="M602.3,174.9v-10l1.4-0.2v0.8c0.4-0.4,1.2-0.8,2.1-0.8c1.8,0,3,1.3,3,3.4c0,2.3-1.6,3.9-3.6,3.9
			c-0.5,0-1.2-0.1-1.5-0.3v3.3H602.3z M603.7,170.4c0.4,0.3,1,0.4,1.4,0.4c1.4,0,2.3-1.1,2.3-2.7c0-1.4-0.8-2.3-1.9-2.3
			c-0.7,0-1.4,0.3-1.8,0.6V170.4z"/>
		<path fill="#00CF92" d="M610.3,171.8v-6.9l1.4-0.2v1.2c0.6-0.8,1.5-1.4,2.8-1.2v1.4c-1.1-0.2-2.1,0.2-2.8,0.9v4.8H610.3z"/>
		<path fill="#00CF92" d="M616.4,161.3c0.5,0,0.9,0.4,0.9,0.9s-0.4,0.9-0.9,0.9s-0.9-0.4-0.9-0.9S615.9,161.3,616.4,161.3z
			 M615.7,164.9l1.4-0.2v7.1h-1.4V164.9z"/>
		<path fill="#00CF92" d="M622.2,164.6c0.5,0,1,0.1,1.5,0.3v1.2c-0.5-0.2-0.9-0.3-1.4-0.3c-1.3,0-2.4,0.9-2.4,2.4
			c0,1.5,1.1,2.4,2.4,2.4c0.5,0,1-0.1,1.5-0.3v1.3c-0.4,0.2-1.1,0.3-1.5,0.3c-2.1,0-3.7-1.5-3.7-3.6
			C618.5,166.1,620.1,164.6,622.2,164.6z"/>
		<path fill="#00CF92" d="M628.3,171.9c-2.2,0-3.8-1.6-3.8-3.7c0-2.1,1.4-3.6,3.3-3.6c2.1,0,2.9,1.5,2.9,3.3c0,0.2,0,0.3,0,0.5h-4.9
			c0.1,1.4,1.2,2.3,2.6,2.3c0.7,0,1.2-0.1,2-0.5v1.2C629.8,171.8,629.1,171.9,628.3,171.9z M625.9,167.6h3.5v-0.1
			c0-0.9-0.5-1.8-1.6-1.8C626.8,165.7,626.1,166.4,625.9,167.6z"/>
		<path fill="#00CF92" d="M631.8,170.1c0.8,0.5,1.6,0.7,2.3,0.7c0.8,0,1.4-0.4,1.4-0.9c0-1.3-3.4-0.9-3.4-3.2c0-1.2,1.1-2.1,2.5-2.1
			c0.7,0,1.3,0.2,1.9,0.4v1.2c-0.6-0.4-1.2-0.5-1.8-0.5c-0.8,0-1.2,0.4-1.2,0.9c0,1.3,3.4,0.9,3.4,3.1c0,1.4-1.3,2.1-2.7,2.1
			c-0.9,0-1.8-0.2-2.3-0.5V170.1z"/>
		<path fill="#00CF92" d="M469.6,192.8h-1.4v-5.9h-1v-1.1h1v-0.6c0-2.1,1.3-3.4,3.2-3.4c0.4,0,0.7,0,1.1,0.2v1.1
			c-0.4-0.1-0.6-0.1-1-0.1c-1.2,0-1.9,0.8-1.9,2.2v0.6h2.2l-0.2,1.1h-2V192.8z"/>
		<path fill="#00CF92" d="M475.5,185.6c1.9,0,3.4,1.5,3.4,3.7c0,2.2-1.6,3.7-3.4,3.7c-1.8,0-3.4-1.5-3.4-3.7
			C472.1,187.1,473.6,185.6,475.5,185.6z M475.5,186.8c-1.2,0-2,1-2,2.4c0,1.4,0.8,2.4,2,2.4s2-1,2-2.4
			C477.5,187.8,476.7,186.8,475.5,186.8z"/>
		<path fill="#00CF92" d="M480.3,192.8v-6.9l1.4-0.2v1.2c0.6-0.8,1.5-1.4,2.8-1.2v1.4c-1.1-0.2-2.1,0.2-2.8,0.9v4.8H480.3z"/>
		<path fill="#00CF92" d="M492.6,192.9c-2.2,0-3.8-1.6-3.8-3.7c0-2.1,1.4-3.6,3.3-3.6c2.1,0,2.9,1.5,2.9,3.3c0,0.2,0,0.3,0,0.5h-4.9
			c0.1,1.4,1.2,2.3,2.6,2.3c0.7,0,1.2-0.1,2-0.5v1.2C494.1,192.8,493.4,192.9,492.6,192.9z M490.1,188.6h3.5v-0.1
			c0-0.9-0.5-1.8-1.6-1.8C491.1,186.7,490.3,187.4,490.1,188.6z"/>
		<path fill="#00CF92" d="M500.3,192.8l-0.1-0.7c-0.5,0.5-1.3,0.9-2.1,0.9c-1.1,0-2-0.7-2-1.9c0-1.4,1.3-2.4,4.2-2.5v-0.4
			c0-0.8-0.5-1.4-1.5-1.4c-0.8,0-1.6,0.2-2.3,0.7v-1.2c0.6-0.4,1.6-0.7,2.4-0.7c1.9,0,2.7,1.1,2.7,2.5v3.3c0,0.7,0,1,0.1,1.4H500.3z
			 M500.2,191.2v-1.8c-1.9,0.1-2.8,0.5-2.8,1.5c0,0.6,0.4,0.9,1.1,0.9S499.6,191.6,500.2,191.2z"/>
		<path fill="#00CF92" d="M506.6,185.6c0.5,0,1,0.1,1.5,0.3v1.2c-0.5-0.2-0.9-0.3-1.4-0.3c-1.3,0-2.4,0.9-2.4,2.4
			c0,1.5,1.1,2.4,2.4,2.4c0.5,0,1-0.1,1.5-0.3v1.3c-0.4,0.2-1.1,0.3-1.5,0.3c-2.1,0-3.7-1.5-3.7-3.6
			C502.9,187.1,504.5,185.6,506.6,185.6z"/>
		<path fill="#00CF92" d="M511,181.8v4.6c0.5-0.4,1.4-0.8,2.4-0.8c1.6,0,2.4,0.9,2.4,2.4v4.8h-1.4v-4.4c0-0.9-0.4-1.5-1.4-1.5
			c-0.8,0-1.3,0.2-1.9,0.6v5.3h-1.4V182L511,181.8z"/>
		<path fill="#00CF92" d="M522,182.3c0.5,0,0.9,0.4,0.9,0.9s-0.4,0.9-0.9,0.9s-0.9-0.4-0.9-0.9S521.5,182.3,522,182.3z M521.3,185.9
			l1.4-0.2v7.1h-1.4V185.9z"/>
		<path fill="#00CF92" d="M524.9,185.7v-1.5l1.4-0.2v1.7h2.4l-0.2,1.1h-2.2v3.7c0,0.8,0.5,1.1,1.1,1.1c0.6,0,1-0.1,1.6-0.3v1.2
			c-0.5,0.3-1.2,0.4-1.8,0.4c-1.2,0-2.3-0.6-2.3-2.1v-3.9h-1v-1.1H524.9z"/>
		<path fill="#00CF92" d="M533.5,192.9c-2.2,0-3.8-1.6-3.8-3.7c0-2.1,1.4-3.6,3.3-3.6c2.1,0,2.9,1.5,2.9,3.3c0,0.2,0,0.3,0,0.5h-4.9
			c0.1,1.4,1.2,2.3,2.6,2.3c0.7,0,1.2-0.1,2-0.5v1.2C535,192.8,534.3,192.9,533.5,192.9z M531.1,188.6h3.5v-0.1
			c0-0.9-0.5-1.8-1.6-1.8C532.1,186.7,531.3,187.4,531.1,188.6z"/>
		<path fill="#00CF92" d="M537.5,192.8v-6.9l1.4-0.2v0.8c0.4-0.4,1.3-0.8,2.3-0.8c0.9,0,1.6,0.4,1.9,1c0.5-0.4,1.4-1,2.6-1
			c1.5,0,2.3,0.9,2.3,2.4v4.8h-1.4v-4.4c0-0.9-0.3-1.5-1.3-1.5c-0.7,0-1.3,0.2-1.8,0.6c0,0.2,0,0.3,0,0.5v4.8H542v-4.4
			c0-0.9-0.3-1.5-1.3-1.5c-0.7,0-1.3,0.2-1.8,0.6v5.3H537.5z"/>
		<path fill="#00CF92" d="M550.6,190.9c0.5,0,1,0.5,1,1c0,0.6-0.4,1-1,1s-1-0.5-1-1C549.6,191.3,550.1,190.9,550.6,190.9z"/>
	</g>
</g>
<line fill="none" stroke="#00CF92" stroke-miterlimit="10" x1="457" y1="180.7" x2="376.4" y2="180.7"/>
<g>
	<path d="M194,139.8c1.8,0,3.1,0.4,4.1,1.3c0.9,0.9,1.4,2.3,1.4,4.1c0,1-0.1,1.8-0.3,2.6c-0.2,0.7-0.5,1.4-1,1.9
		c-0.4,0.5-1,0.9-1.7,1.2c-0.7,0.3-1.5,0.4-2.5,0.4h-3.9v-11.4H194z M194.1,150c0.2,0,0.4,0,0.6,0c0.3,0,0.5-0.1,0.8-0.2
		s0.6-0.2,0.9-0.4c0.3-0.2,0.5-0.5,0.8-0.8c0.2-0.3,0.4-0.7,0.6-1.2c0.1-0.5,0.2-1.1,0.2-1.8c0-0.7-0.1-1.3-0.2-1.8
		c-0.1-0.5-0.4-1-0.7-1.4c-0.3-0.4-0.7-0.7-1.2-0.9c-0.5-0.2-1.1-0.3-1.8-0.3h-2.6v8.9H194.1z"/>
	<path d="M207,150.7c-0.6,0.5-1.4,0.7-2.3,0.7c-0.7,0-1.2-0.1-1.7-0.3s-0.9-0.5-1.2-0.9c-0.3-0.4-0.6-0.8-0.7-1.4
		c-0.2-0.5-0.3-1.1-0.3-1.7c0-0.6,0.1-1.2,0.3-1.7c0.2-0.5,0.5-1,0.8-1.4c0.3-0.4,0.8-0.7,1.2-0.9s1-0.3,1.6-0.3
		c0.7,0,1.3,0.2,1.8,0.5c0.5,0.3,0.9,0.7,1.2,1.2c0.3,0.5,0.5,1,0.6,1.5c0.1,0.6,0.2,1.1,0.1,1.6h-6.2c0,0.4,0,0.7,0.1,1
		c0.1,0.3,0.3,0.6,0.5,0.9c0.2,0.2,0.5,0.5,0.8,0.6c0.3,0.2,0.7,0.2,1.2,0.2c0.6,0,1-0.1,1.4-0.4c0.4-0.3,0.6-0.7,0.7-1.2h1.3
		C208.1,149.6,207.7,150.3,207,150.7z M206.7,145.4c-0.1-0.3-0.3-0.5-0.5-0.7c-0.2-0.2-0.5-0.4-0.7-0.5c-0.3-0.1-0.6-0.2-0.9-0.2
		c-0.4,0-0.7,0.1-1,0.2c-0.3,0.1-0.5,0.3-0.7,0.5c-0.2,0.2-0.4,0.5-0.5,0.7s-0.2,0.6-0.2,0.9h4.8C206.9,146,206.8,145.7,206.7,145.4
		z"/>
	<path d="M210.9,149.4c0.1,0.2,0.3,0.4,0.5,0.5c0.2,0.1,0.4,0.2,0.7,0.3c0.3,0.1,0.5,0.1,0.8,0.1c0.2,0,0.4,0,0.7,0s0.5-0.1,0.6-0.2
		c0.2-0.1,0.4-0.2,0.5-0.4c0.1-0.2,0.2-0.4,0.2-0.6c0-0.4-0.1-0.6-0.4-0.8s-0.6-0.3-1-0.4c-0.4-0.1-0.8-0.2-1.3-0.3
		c-0.5-0.1-0.9-0.2-1.3-0.4c-0.4-0.2-0.7-0.4-1-0.7c-0.3-0.3-0.4-0.7-0.4-1.2c0-0.4,0.1-0.8,0.3-1.1s0.4-0.5,0.7-0.7
		c0.3-0.2,0.6-0.3,1-0.4c0.4-0.1,0.7-0.1,1.1-0.1c0.5,0,0.9,0,1.3,0.1s0.7,0.2,1,0.4c0.3,0.2,0.5,0.5,0.7,0.8s0.3,0.8,0.3,1.3h-1.4
		c0-0.3-0.1-0.5-0.2-0.7s-0.3-0.3-0.4-0.4c-0.2-0.1-0.4-0.2-0.6-0.2c-0.2,0-0.4-0.1-0.7-0.1c-0.2,0-0.4,0-0.6,0
		c-0.2,0-0.4,0.1-0.6,0.2c-0.2,0.1-0.3,0.2-0.4,0.3c-0.1,0.1-0.2,0.3-0.2,0.5c0,0.2,0.1,0.4,0.2,0.6c0.2,0.2,0.4,0.3,0.6,0.4
		s0.5,0.2,0.9,0.3c0.3,0.1,0.6,0.1,1,0.2c0.3,0.1,0.7,0.2,1,0.3c0.3,0.1,0.6,0.2,0.9,0.4c0.3,0.2,0.5,0.4,0.6,0.7
		c0.2,0.3,0.2,0.6,0.2,1c0,0.5-0.1,0.9-0.3,1.2s-0.5,0.6-0.8,0.8c-0.3,0.2-0.7,0.3-1.1,0.4c-0.4,0.1-0.8,0.1-1.3,0.1
		c-0.5,0-0.9,0-1.3-0.1c-0.4-0.1-0.8-0.3-1.1-0.5c-0.3-0.2-0.6-0.5-0.8-0.9c-0.2-0.4-0.3-0.8-0.3-1.3h1.4
		C210.7,148.9,210.8,149.2,210.9,149.4z"/>
	<path d="M217.9,141.5v-1.7h1.4v1.7H217.9z M219.3,143v8.3h-1.4V143H219.3z"/>
	<path d="M227.5,153.6c-0.6,0.7-1.6,1-2.9,1c-0.4,0-0.8,0-1.2-0.1c-0.4-0.1-0.8-0.2-1.1-0.4c-0.3-0.2-0.6-0.4-0.8-0.8
		c-0.2-0.3-0.3-0.7-0.4-1.1h1.4c0,0.2,0.1,0.5,0.2,0.6c0.1,0.2,0.3,0.3,0.5,0.4c0.2,0.1,0.4,0.2,0.7,0.2c0.2,0,0.5,0.1,0.7,0.1
		c0.4,0,0.8-0.1,1.1-0.2s0.6-0.4,0.8-0.6c0.2-0.3,0.3-0.6,0.4-1c0.1-0.4,0.1-0.8,0.1-1.3v-0.5h0c-0.2,0.5-0.6,0.9-1.1,1.1
		c-0.5,0.2-1,0.4-1.5,0.4c-0.6,0-1.2-0.1-1.6-0.3c-0.5-0.2-0.8-0.5-1.2-0.9s-0.5-0.8-0.7-1.3c-0.2-0.5-0.2-1-0.2-1.6
		c0-0.5,0.1-1,0.2-1.5c0.1-0.5,0.3-1,0.6-1.4c0.3-0.4,0.7-0.8,1.2-1s1.1-0.4,1.8-0.4c0.5,0,1,0.1,1.4,0.3c0.4,0.2,0.8,0.6,1,1h0V143
		h1.3v7.6C228.5,151.9,228.2,152.9,227.5,153.6z M225.8,149.9c0.3-0.2,0.6-0.4,0.8-0.7c0.2-0.3,0.3-0.6,0.4-1s0.1-0.8,0.1-1.2
		c0-0.4,0-0.7-0.1-1.1c-0.1-0.4-0.2-0.7-0.4-1c-0.2-0.3-0.4-0.5-0.7-0.7c-0.3-0.2-0.7-0.3-1.1-0.3c-0.4,0-0.8,0.1-1.1,0.2
		c-0.3,0.2-0.6,0.4-0.8,0.7s-0.3,0.6-0.4,1c-0.1,0.4-0.1,0.7-0.1,1.1c0,0.4,0,0.7,0.1,1.1s0.2,0.7,0.4,1c0.2,0.3,0.4,0.6,0.7,0.7
		c0.3,0.2,0.7,0.3,1.1,0.3C225.1,150.1,225.5,150.1,225.8,149.9z"/>
	<path d="M231.8,143v1.3h0c0.6-1,1.5-1.5,2.7-1.5c0.5,0,1,0.1,1.4,0.2c0.4,0.1,0.7,0.4,0.9,0.6c0.2,0.3,0.4,0.6,0.5,1
		c0.1,0.4,0.1,0.8,0.1,1.2v5.4H236v-5.6c0-0.5-0.1-0.9-0.4-1.2c-0.3-0.3-0.7-0.4-1.2-0.4c-0.4,0-0.8,0.1-1.1,0.2
		c-0.3,0.1-0.6,0.3-0.8,0.5c-0.2,0.2-0.4,0.5-0.5,0.8s-0.2,0.7-0.2,1v4.7h-1.4V143H231.8z"/>
</g>
</svg>
